<svg width="100" height="100" viewBox="0 0 22 22" fill="none" xmlns="http://www.w3.org/2000/svg">
<rect x="0.5" y="0.5" width="21" height="21" rx="3.5" stroke="#9FCE3C"/>
<path d="M8.60269 15C7.85602 15 7.26935 14.8933 6.84269 14.68C6.41602 14.4667 6.11202 14.1467 5.93069 13.72C5.76002 13.2933 5.67469 12.7653 5.67469 12.136V8.44C5.67469 7.82133 5.76002 7.304 5.93069 6.888C6.10135 6.46133 6.40002 6.14133 6.82669 5.928C7.25335 5.704 7.84535 5.592 8.60269 5.592H13.2747C14.0214 5.592 14.6027 5.704 15.0187 5.928C15.4454 6.14133 15.744 6.46133 15.9147 6.888C16.096 7.304 16.1867 7.82133 16.1867 8.44V10.536C16.1867 11.336 16.0854 11.976 15.8827 12.456C15.6907 12.9253 15.344 13.3253 14.8427 13.656C14.5334 13.8587 14.0054 14.104 13.2587 14.392C13.7067 14.4667 14.1227 14.5467 14.5067 14.632C14.9014 14.7067 15.2427 14.7707 15.5307 14.824C15.8827 14.888 16.24 14.9467 16.6027 15C16.976 15.0427 17.3014 15.0747 17.5787 15.096C17.856 15.128 18.0267 15.1493 18.0907 15.16L17.7387 16.536C17.696 16.5467 17.584 16.568 17.4027 16.6C17.2214 16.6427 16.976 16.664 16.6667 16.664C16.208 16.664 15.776 16.616 15.3707 16.52C14.976 16.4347 14.5387 16.3173 14.0587 16.168C13.632 16.0293 13.2374 15.8907 12.8747 15.752C12.5227 15.6133 12.1547 15.4853 11.7707 15.368C11.3867 15.2613 10.944 15.1707 10.4427 15.096C9.94135 15.032 9.32802 15 8.60269 15ZM9.06669 13.464H11.0507C11.7654 13.464 12.3414 13.384 12.7787 13.224C13.2267 13.0533 13.552 12.76 13.7547 12.344C13.968 11.9173 14.0747 11.3253 14.0747 10.568V8.248C14.0747 7.93867 13.9627 7.67733 13.7387 7.464C13.5147 7.24 13.2107 7.128 12.8267 7.128H9.06669C8.68269 7.128 8.37335 7.22933 8.13869 7.432C7.90402 7.63467 7.78669 7.90667 7.78669 8.248V12.328C7.78669 12.6907 7.89869 12.9733 8.12269 13.176C8.35735 13.368 8.67202 13.464 9.06669 13.464Z" fill="#fff"/>
</svg>
